<svg width="594" height="118" viewBox="0 0 594 118" fill="none" xmlns="http://www.w3.org/2000/svg">
<path d="M33.2313 9.06848C44.4084 8.92958 55.8092 9.04436 67.0063 9.04798C68.4199 10.5528 70.437 12.4668 71.9472 13.9656L79.0847 21.1403L99.9888 42.1675L99.9793 108.925C91.3252 109.138 82.5514 108.816 73.8849 108.95C71.6303 108.985 69.1799 109.003 66.9387 108.916L66.9442 76.0445C68.6472 74.1522 70.7217 72.1137 72.5215 70.2836L80.6284 62.003C87.0519 55.373 93.5093 48.776 100.001 42.2122L67.0006 42.2106C66.0624 41.4439 65.1516 40.4876 64.2775 39.633L59.9643 35.424L45.4047 21.2058L36.9372 12.9223C36.1236 12.1254 33.6879 9.87916 33.1421 9.15896L33.2313 9.06848Z" fill="#0F0F10"/>
<path d="M33.0279 18.3045C33.262 18.4457 34.6237 19.8023 34.9229 20.0941L39.5543 24.6222L57.5892 42.2227L41.2005 42.2265C39.093 42.2265 35.0487 42.0991 33.0558 42.2497C33.1937 49.6132 33.0845 57.3034 33.084 64.6856L33.09 108.922C30.4331 109.035 27.1734 108.947 24.4713 108.946L9.01578 108.95C6.05034 108.95 2.97359 108.993 0.0229803 108.923L0.0216006 87.6348C0.0209103 83.7922 -0.0387943 79.7944 0.0433444 75.9726C3.08472 72.7454 6.35836 69.5195 9.45754 66.3307L33.0125 42.1727L33.0072 26.9989C33.0072 24.1464 32.9611 21.1477 33.0279 18.3045Z" fill="#0F0F10"/>
<path d="M145.86 91V20.93H161.736L211.324 71.302V20.93H227.004V91H211.128L161.54 40.53V91H145.86ZM248.64 113.05V101.78H278.236C282.156 101.78 284.116 99.7873 284.116 95.802V91H253.834C248.084 91 243.87 89.5627 241.192 86.688C238.578 83.8133 237.272 80.0893 237.272 75.516V40.53H251.482V73.85C251.482 77.77 253.442 79.73 257.362 79.73H283.626V40.53H298.326V97.566C298.326 102.205 296.986 105.929 294.308 108.738C291.629 111.613 287.448 113.05 281.764 113.05H248.64ZM320.611 91C315.319 91 311.268 89.6607 308.459 86.982C305.65 84.3033 304.245 80.4813 304.245 75.516C304.245 70.616 305.65 66.8267 308.459 64.148C311.268 61.4693 315.319 60.13 320.611 60.13H358.243V57.778C358.243 53.7927 356.283 51.8 352.363 51.8H310.811V40.53H356.087C362.032 40.53 366.246 41.902 368.729 44.646C371.212 47.3247 372.453 51.114 372.453 56.014V91H320.611ZM323.159 79.73H358.243V71.4H323.159C321.918 71.4 320.938 71.792 320.219 72.576C319.566 73.2947 319.239 74.2747 319.239 75.516C319.239 76.7573 319.566 77.77 320.219 78.554C320.938 79.338 321.918 79.73 323.159 79.73ZM381.309 91V20.93H395.519V91H381.309ZM383.759 91V79.73H417.569C421.815 79.73 425.049 78.5867 427.271 76.3C429.557 73.948 430.701 70.4527 430.701 65.814C430.701 61.11 429.557 57.6147 427.271 55.328C425.049 52.976 421.815 51.8 417.569 51.8H384.739V40.53H417.569C426.323 40.53 433.151 42.686 438.051 46.998C442.951 51.31 445.401 57.582 445.401 65.814C445.401 73.9807 442.951 80.22 438.051 84.532C433.151 88.844 426.323 91 417.569 91H383.759ZM465.701 91C460.409 91 456.358 89.6607 453.549 86.982C450.739 84.3033 449.335 80.4813 449.335 75.516C449.335 70.616 450.739 66.8267 453.549 64.148C456.358 61.4693 460.409 60.13 465.701 60.13H503.333V57.778C503.333 53.7927 501.373 51.8 497.453 51.8H455.901V40.53H501.177C507.122 40.53 511.336 41.902 513.819 44.646C516.301 47.3247 517.543 51.114 517.543 56.014V91H465.701ZM468.249 79.73H503.333V71.4H468.249C467.007 71.4 466.027 71.792 465.309 72.576C464.655 73.2947 464.329 74.2747 464.329 75.516C464.329 76.7573 464.655 77.77 465.309 78.554C466.027 79.338 467.007 79.73 468.249 79.73ZM538.355 113.05V101.78H567.951C571.871 101.78 573.831 99.7873 573.831 95.802V91H552.271C543.516 91 536.689 88.844 531.789 84.532C526.889 80.22 524.439 73.9807 524.439 65.814C524.439 57.582 526.889 51.31 531.789 46.998C536.689 42.686 543.516 40.53 552.271 40.53H588.041V97.566C588.041 102.205 586.701 105.929 584.023 108.738C581.344 111.613 577.163 113.05 571.479 113.05H538.355ZM552.271 79.73H573.831V51.8H552.271C548.024 51.8 544.757 52.976 542.471 55.328C540.249 57.6147 539.139 61.11 539.139 65.814C539.139 70.4527 540.249 73.948 542.471 76.3C544.757 78.5867 548.024 79.73 552.271 79.73Z" fill="#0F0F10"/>
</svg>
