<svg width="580" height="580" viewBox="0 0 580 580" fill="none" xmlns="http://www.w3.org/2000/svg">
<path d="M192.739 0.397213C257.566 -0.408428 323.691 0.257272 388.634 0.278262C396.833 9.00637 408.532 20.1074 417.291 28.8006L458.688 70.414L579.932 192.372L579.877 579.564C529.684 580.8 478.796 578.932 428.53 579.711C415.453 579.913 401.241 580.018 388.242 579.512L388.274 388.858C398.151 377.883 410.183 366.059 420.622 355.445L467.642 307.417C504.899 268.964 542.351 230.701 580 192.631L388.601 192.622C383.159 188.175 377.877 182.628 372.807 177.671L347.79 153.259L263.345 70.7938L214.233 22.7492C209.514 18.1273 195.387 5.09913 192.222 0.921988L192.739 0.397213Z" fill="black"/>
<path d="M191.561 53.9663C192.92 54.7849 200.817 62.6534 202.553 64.3457L229.415 90.609L334.017 192.691L238.963 192.713C226.739 192.713 203.282 191.975 191.724 192.848C192.523 235.556 191.89 280.159 191.887 322.976L191.922 579.546C176.512 580.206 157.606 579.692 141.933 579.688L52.2915 579.709C35.0919 579.711 17.2468 579.962 0.133286 579.552L0.125283 456.082C0.12128 433.795 -0.225006 410.607 0.251397 388.441C17.8913 369.724 36.8784 351.013 54.8537 332.518L191.472 192.402L191.441 104.394C191.441 87.8492 191.174 70.457 191.561 53.9663Z" fill="black"/>
</svg>
